<svg viewBox="0 0 300 90" xmlns="http://www.w3.org/2000/svg" aria-label="Videra Health"> <g> <path fill="#003A70" d="M275.3,36l5.7-13.4l5.7,13.4L275.3,36z M263.8,49.4h6l3.4-8.1h15.6l3.4,8.1h6.1l-14.5-33.8h-5.4L263.8,49.4z M234.6,32.4V21.2h8.5c4.3,0,6.9,2,6.9,5.6v0.1c0,3.4-2.6,5.6-6.8,5.6L234.6,32.4z M228.8,49.4h5.8V37.7h7.3l8.1,11.7h6.8l-8.9-12.7c2.3-0.5,4.3-1.8,5.8-3.6c1.4-1.9,2.2-4.2,2.1-6.5v-0.1c0.1-2.7-0.9-5.3-2.7-7.2c-2.6-2.3-6-3.5-9.5-3.4h-14.7V49.4z M193.5,49.4h24.8v-5.3h-18.9v-9h16.6v-5.3h-16.6v-8.7H218v-5.3h-24.5V49.4z M158.7,44V21.2h6.5c1.5-0.1,3,0.1,4.4,0.7c1.4,0.5,2.7,1.4,3.8,2.4c1.1,1.1,1.9,2.4,2.5,3.8c0.6,1.4,0.8,3,0.8,4.5v0.1c0.1,1.5-0.2,3-0.8,4.5c-0.6,1.4-1.4,2.7-2.5,3.8c-1.1,1.1-2.4,1.9-3.8,2.4c-1.4,0.5-2.9,0.7-4.4,0.6L158.7,44z M152.9,49.4h12.3c10.4,0,17.6-7.3,17.6-16.8v-0.1c0-9.4-7.2-16.7-17.6-16.7h-12.3V49.4z M134.5,49.4h5.8V15.8h-5.8L134.5,49.4z M106,49.6h5.1l13.7-33.8h-6.3l-9.9,25.8l-10-25.8h-6.4L106,49.6z"></path> <path fill="#5585E7" d="M254.6,79.2h2.1v-8.8h11.1v8.8h2.2V59.7h-2.2v8.7h-11.1v-8.7h-2.2L254.6,79.2z M233.6,79.2h2.2V61.7h6.5v-2h-15.1v2h6.5V79.2z M206.1,79.2h13v-2h-10.8V59.7h-2.2V79.2z M179.9,72.1l4.4-10l4.4,10H179.9z M174.6,79.2h2.2l2.3-5.2h10.5l2.3,5.2h2.3l-8.8-19.7h-2L174.6,79.2z M149.6,79.2h14.1v-2h-11.9v-6.8h10.5v-2h-10.5v-6.7h11.8v-2h-13.9V79.2z M120.5,79.2h2.2v-8.8h11.1v8.8h2.2V59.7h-2.2v8.7h-11.1v-8.7h-2.2L120.5,79.2z"></path> </g> <polyline fill="none" stroke="#003A70" stroke-width="7.4567" stroke-linejoin="round" stroke-miterlimit="10" points="18.8,36.8 42.5,60.4 65.9,37"></polyline> <polyline fill="none" stroke="#003A70" stroke-width="7.4567" stroke-linejoin="round" stroke-miterlimit="10" points="13.6,36.8 5.4,44.9 42.4,81.9 79.3,45.1 71.1,37"></polyline> <polyline fill="none" stroke="#5585E7" stroke-width="7.4567" stroke-linejoin="round" stroke-miterlimit="10" points="65.9,31.7 42.2,8.1 18.8,31.5"></polyline> </svg>
